# xmcd
# 
# Track frame offsets:
#     150
#     17252
#     30476
#     43569
#     61701
#     88032
#     105614
#     123504
#     133272
#     153641
# 
# Disc length: 2474
# 
# Revision: 2
# Processed by: cddbd v1.5.2PL0 Copyright (c) Steve Scherf et al.
# Submitted via: fre:ac v1.0.31
# 
DISCID=7709a80a
DTITLE=Sturgill Simpson - Sound and Fury
DYEAR=2019
DGENRE=Rock/Pop
TTITLE0=Ronin
TTITLE1=Remember To Breathe
TTITLE2=Sing Along
TTITLE3=A Good Look
TTITLE4=Make Art Not Friends
TTITLE5=Best Clockmaker On Mars
TTITLE6=All Said And Done
TTITLE7=Last Man Standing
TTITLE8=Mercury In Retrograde
TTITLE9=Fastest Horse In Town
EXTD=
EXTT0=
EXTT1=
EXTT2=
EXTT3=
EXTT4=
EXTT5=
EXTT6=
EXTT7=
EXTT8=
EXTT9=
PLAYORDER=
